# xmcd
#
# Track frame offsets:
#   150
#   12784
#   23922
#   36805
#   48090
#   60155
#   71872
#   82552
#   96895
#   106212
#   117060
#   131672
#   145312
#   158025
#   168852
#   181227
#   192950
#   206915
#   220942
#
# Disc length: 3109 seconds
#
# Revision: 2
# Processed by: cddbd v1.5PL3 Copyright (c) Steve Scherf et al.
# Submitted via: Media_Universe 3.0
#
DISCID=f60c2313
DTITLE=Ray Charles - Hey Now
DYEAR=1990
DGENRE=R&B
TTITLE0=Rockin' Chair Blues
TTITLE1=A Sentimental Blues
TTITLE2=Can Anyone Ask For More
TTITLE3=Let's Have A Ball
TTITLE4=Can't See You Darling
TTITLE5=If I Give You My Love
TTITLE6=Sitting On The Top Of The World
TTITLE7=Kiss Me Baby
TTITLE8=All To Myself Alone
TTITLE9=Hey Now
TTITLE10=Blues Is My Middlename
TTITLE11=I'm Gonna Drown Myself
TTITLE12=Snow Is Falling
TTITLE13=I Wonder Who's Kissing Her Now
TTITLE14=C C Rider
TTITLE15=Tell Me Baby
TTITLE16=This Love Of Mine
TTITLE17=Baby Let Me Hold Your Head
TTITLE18=I'm Glad For Your Sake
EXTD=Compilation Album
EXTT0=
EXTT1=
EXTT2=
EXTT3=
EXTT4=
EXTT5=
EXTT6=
EXTT7=
EXTT8=
EXTT9=
EXTT10=
EXTT11=
EXTT12=
EXTT13=
EXTT14=
EXTT15=
EXTT16=
EXTT17=
EXTT18=
PLAYORDER=
